<svg width="30" height="25" viewBox="0 0 30 25" fill="none" xmlns="http://www.w3.org/2000/svg">
<g clip-path="url(#clip0_386_12912)" filter="url(#filter0_d_386_12912)">
<path d="M23.317 4.49197C21.787 3.80197 20.147 3.29197 18.432 3.00197C18.4167 2.99904 18.4009 3.00093 18.3868 3.00738C18.3726 3.01383 18.3608 3.02452 18.353 3.03797C18.143 3.40697 17.909 3.88797 17.745 4.26797C15.9261 3.99621 14.0769 3.99621 12.258 4.26797C12.0753 3.84683 11.8693 3.4362 11.641 3.03797C11.6333 3.02436 11.6215 3.01342 11.6074 3.00663C11.5933 2.99984 11.5775 2.99752 11.562 2.99997C9.84799 3.28997 8.20799 3.79997 6.67699 4.49097C6.66382 4.4965 6.65265 4.50592 6.64499 4.51797C3.53299 9.09297 2.67999 13.555 3.09899 17.961C3.10016 17.9718 3.10351 17.9822 3.10884 17.9917C3.11417 18.0011 3.12136 18.0094 3.12999 18.016C4.94638 19.3384 6.97233 20.3458 9.12299 20.996C9.13798 21.0006 9.15402 21.0006 9.16901 20.9959C9.18399 20.9913 9.19723 20.9823 9.20699 20.97C9.66979 20.351 10.0799 19.6944 10.433 19.007C10.4379 18.9976 10.4407 18.9872 10.4413 18.9766C10.4418 18.9661 10.4401 18.9555 10.4362 18.9456C10.4323 18.9358 10.4264 18.9268 10.4187 18.9195C10.4111 18.9121 10.402 18.9065 10.392 18.903C9.746 18.6597 9.12008 18.3661 8.51999 18.025C8.50921 18.0188 8.50012 18.0101 8.49355 17.9995C8.48698 17.989 8.48312 17.977 8.48233 17.9646C8.48153 17.9522 8.48383 17.9398 8.48901 17.9286C8.49418 17.9173 8.50208 17.9075 8.51199 17.9C8.63799 17.807 8.76399 17.71 8.88399 17.613C8.89479 17.6043 8.9078 17.5987 8.92158 17.5969C8.93535 17.5952 8.94934 17.5973 8.96199 17.603C12.889 19.367 17.142 19.367 21.023 17.603C21.0357 17.5969 21.0498 17.5946 21.0638 17.5961C21.0778 17.5977 21.091 17.6032 21.102 17.612C21.222 17.71 21.347 17.807 21.474 17.9C21.484 17.9073 21.492 17.917 21.4974 17.9282C21.5027 17.9394 21.5052 17.9517 21.5046 17.9641C21.504 17.9765 21.5004 17.9885 21.494 17.9991C21.4876 18.0098 21.4787 18.0186 21.468 18.025C20.87 18.369 20.248 18.66 19.595 18.902C19.585 18.9056 19.5758 18.9114 19.5682 18.9188C19.5606 18.9263 19.5546 18.9353 19.5507 18.9452C19.5468 18.9551 19.5451 18.9658 19.5457 18.9764C19.5463 18.9871 19.5491 18.9975 19.554 19.007C19.914 19.694 20.326 20.348 20.779 20.969C20.7884 20.9817 20.8015 20.9912 20.8166 20.9963C20.8316 21.0013 20.8478 21.0015 20.863 20.997C23.0173 20.3486 25.0466 19.3407 26.865 18.016C26.8739 18.0098 26.8813 18.0017 26.8868 17.9924C26.8923 17.9831 26.8958 17.9727 26.897 17.962C27.397 12.868 26.059 8.44197 23.348 4.51997C23.3413 4.50723 23.3303 4.49729 23.317 4.49197ZM11.02 15.278C9.83799 15.278 8.86299 14.209 8.86299 12.898C8.86299 11.586 9.81899 10.518 11.02 10.518C12.23 10.518 13.196 11.595 13.177 12.898C13.177 14.21 12.221 15.278 11.02 15.278ZM18.995 15.278C17.812 15.278 16.838 14.209 16.838 12.898C16.838 11.586 17.793 10.518 18.995 10.518C20.205 10.518 21.171 11.595 21.152 12.898C21.152 14.21 20.206 15.278 18.995 15.278Z" fill="#F1F1F1"/>
</g>
<defs>
<filter id="filter0_d_386_12912" x="0.979184" y="-1.01041" width="28.0416" height="28.0416" filterUnits="userSpaceOnUse" color-interpolation-filters="sRGB">
<feFlood flood-opacity="0" result="BackgroundImageFix"/>
<feColorMatrix in="SourceAlpha" type="matrix" values="0 0 0 0 0 0 0 0 0 0 0 0 0 0 0 0 0 0 127 0" result="hardAlpha"/>
<feOffset dy="1.01041"/>
<feGaussianBlur stdDeviation="1.01041"/>
<feComposite in2="hardAlpha" operator="out"/>
<feColorMatrix type="matrix" values="0 0 0 0 0 0 0 0 0 0 0 0 0 0 0 0 0 0 0.15 0"/>
<feBlend mode="normal" in2="BackgroundImageFix" result="effect1_dropShadow_386_12912"/>
<feBlend mode="normal" in="SourceGraphic" in2="effect1_dropShadow_386_12912" result="shape"/>
</filter>
<clipPath id="clip0_386_12912">
<rect width="24" height="24" fill="white" transform="translate(3)"/>
</clipPath>
</defs>
</svg>
