<svg width="1284" height="756" viewBox="0 0 1284 756" fill="none" xmlns="http://www.w3.org/2000/svg">
<path d="M66.9247 33.4126C175.416 78.1145 245.342 129.872 289.373 169.255C333.897 209.081 363.148 246.331 427.17 282.23C497.748 321.934 549.256 331.466 569.995 334.121C598.751 337.793 598.236 333.695 646.451 336.135C739.071 340.818 751.817 356.465 794.957 353.572C866.483 348.781 860.393 303.838 940.556 282.553C998.612 267.128 1085.93 268.369 1151.9 309.087C1214.03 347.434 1208.27 390.56 1277.33 419.647C1305.7 431.595 1331.67 434.302 1383.59 439.71C1450.11 446.714 1497.26 443.882 1515.87 443.56C1571.02 442.584 1654.46 457.985 1773.64 534.879" stroke="#6E31E2" stroke-width="1.03329" stroke-miterlimit="10"/>
<path d="M70.4971 20.0251C175.722 62.4157 248.392 112.35 296.822 154.087C336.078 188.252 363.913 220.712 406.86 251.484C416.257 258.204 426.248 265.005 437.23 271.651C506.44 313.515 556.503 326.814 577.583 331.81C605.847 338.524 606.719 335.872 653.939 338.364C687.213 340.136 710.528 342.565 728.404 345.006C758.787 349.164 773.249 353.52 799.186 350.834C808.854 349.863 818.278 347.88 827.273 344.925C868.87 331.273 877.718 299.544 944.17 284.665C1002.01 271.713 1087.83 275.747 1152.62 315.943C1157.76 319.131 1162.73 322.538 1167.51 326.153C1215.82 362.649 1217.29 399.402 1277.97 425.04C1284.36 427.75 1290.91 430.085 1297.58 432.031C1319.98 438.631 1344.49 441.306 1383.37 445.366C1447.81 452.015 1494.2 449.284 1514.73 448.915C1529.76 448.689 1544.87 449.602 1559.92 451.647C1612.03 458.603 1681.74 480.456 1771.67 535.963" stroke="#6E31E2" stroke-width="1.03329" stroke-miterlimit="10"/>
<path d="M74.4517 5.47545C176.385 45.5788 251.946 93.5249 304.614 137.876C346.442 173.085 375.532 207.162 417.348 238.405C426.886 245.551 436.801 252.871 447.702 259.937C515.538 303.974 563.633 322.405 585.598 328.369C613.911 336.023 615.669 336.914 661.82 339.452C694.14 341.208 717.596 342.923 735.379 344.558C765.327 347.35 779.142 350.471 803.746 346.918C813.136 345.521 822.271 343.263 831.015 340.179C871.421 326.316 882.674 297.457 948.214 285.582C1005.84 275.117 1090.16 281.943 1153.77 321.619C1159.14 325.034 1164.06 328.303 1168.55 331.759C1218.46 369.162 1220.63 404.462 1279.07 429.168C1285.41 431.874 1291.9 434.213 1298.52 436.168C1321.25 442.996 1345.69 445.793 1383.66 449.638C1446.01 455.997 1491.64 453.311 1514.05 453.049C1528.95 452.83 1543.94 453.692 1558.87 455.629C1610.61 462.231 1680.34 482.95 1770.06 535.815" stroke="#6E31E2" stroke-width="1.03329" stroke-miterlimit="10"/>
<path d="M78.7412 -10.0371C177.401 27.7195 255.74 73.8543 312.765 120.628C357.059 156.978 387.48 192.614 428.124 224.33C437.822 231.909 447.681 239.739 458.462 247.228C524.936 293.409 571.956 313.963 593.898 323.948C621.047 336.288 624.902 336.977 670.003 339.565C701.393 341.346 724.994 342.333 742.77 343.189C772.26 344.627 785.472 346.492 808.739 342.087C817.79 340.237 826.593 337.69 835.054 334.473C874.264 320.415 888.018 294.475 952.506 285.572C1009.99 277.618 1092.74 287.199 1155.16 326.369C1160.48 329.767 1165.37 333.025 1169.84 336.426C1221.29 374.798 1224.23 408.602 1280.36 432.514C1286.65 435.218 1293.09 437.562 1299.65 439.529C1322.72 446.599 1347.15 449.511 1384.14 453.198C1444.37 459.272 1489.26 456.657 1513.58 456.378C1528.38 456.201 1543.25 457.023 1558.08 458.836C1609.45 465.084 1679.19 484.654 1768.69 534.887" stroke="#6E31E2" stroke-width="1.03329" stroke-miterlimit="10"/>
<path d="M83.0232 -25.5851C178.418 9.86 259.51 54.1425 320.904 103.36C367.676 140.87 399.405 178.076 438.922 210.247C448.761 218.252 458.544 226.601 469.244 234.509C534.369 282.79 579.749 306.85 602.229 319.488C628.788 334.424 634.1 336.978 678.217 339.64C708.76 341.423 732.389 341.693 750.109 341.804C779.137 341.901 791.739 342.476 813.68 337.239C822.377 334.943 830.848 332.112 839.036 328.765C877.057 314.548 893.317 291.512 956.8 285.498C1014.13 280.069 1095.31 292.384 1156.56 331.039C1161.81 334.414 1166.67 337.662 1171.13 341.027C1224.15 380.359 1227.88 412.507 1281.68 435.72C1287.92 438.402 1294.31 440.75 1300.81 442.75C1324.18 450.036 1348.51 453.045 1384.66 456.619C1442.8 462.388 1486.94 459.824 1513.15 459.571C1527.84 459.408 1542.6 460.182 1557.32 461.888C1608.34 467.774 1678.09 486.225 1767.4 533.8" stroke="#6E31E2" stroke-width="1.03329" stroke-miterlimit="10"/>
<path d="M85.5521 -35.6834C177.681 -2.54967 261.548 39.8711 327.295 91.5258C376.522 130.206 409.563 169.032 447.971 201.598C457.931 210.039 467.691 218.86 478.277 227.226C542.021 277.594 585.834 305.102 608.751 320.475C634.772 337.909 641.602 342.481 684.622 345.162C708.386 346.622 732.116 346.824 755.691 345.768C784.303 344.556 796.27 343.8 816.81 337.788C825.786 335.142 833.36 331.671 841.36 328.505C878.172 314.188 896.991 293.957 959.392 290.89C1016.61 288.018 1096.19 303.041 1156.26 341.175C1161.45 344.534 1166.28 347.77 1170.72 351.094C1225.33 391.348 1229.77 422.093 1281.31 444.398C1287.5 447.065 1293.83 449.411 1300.27 451.423C1324 458.906 1348.24 462.068 1383.4 465.534C1439.43 471.038 1482.85 468.5 1510.93 468.269C1525.52 468.126 1540.18 468.862 1554.8 470.471C1605.45 475.988 1675.21 493.284 1764.3 538.231" stroke="#6E31E2" stroke-width="1.03329" stroke-miterlimit="10"/>
<path d="M87.0817 -42.9729C175.918 -12.1264 262.555 28.4476 332.682 82.5156C384.364 122.366 418.672 162.83 456.041 195.699C466.133 204.595 475.831 213.891 486.331 222.691C548.792 275.131 591.062 306.077 614.388 324.21C639.844 344.05 648.151 350.71 690.136 353.446C713.662 354.979 737.135 354.707 760.299 352.632C788.418 350.118 799.827 348.024 819.04 341.13C827.559 338.102 834.747 334.257 842.716 331.015C878.376 316.484 899.676 299.347 961.016 299.051C1018.15 298.777 1096.12 316.474 1155 354.101C1160.13 357.438 1164.9 360.658 1169.35 363.952C1225.58 405.082 1230.78 434.397 1280.01 455.741C1286.15 458.409 1292.43 460.759 1298.82 462.781C1322.84 470.48 1347.04 473.776 1381.27 477.036C1435.21 482.23 1477.87 479.758 1507.87 479.53C1522.35 479.413 1536.89 480.106 1551.41 481.605C1601.7 486.759 1671.48 502.906 1760.36 545.241" stroke="#6E31E2" stroke-width="1.03329" stroke-miterlimit="10"/>
<path d="M88.6972 -50.35C174.261 -21.8502 263.615 16.9255 338.155 73.4179C392.271 114.448 427.819 156.575 464.119 189.834C474.333 199.217 484.003 208.999 494.41 218.197C555.564 272.668 596.343 307.004 619.995 327.984C645.091 350.232 654.691 358.967 695.626 361.755C718.975 363.295 742.24 362.479 764.985 359.323C792.565 355.526 803.455 352.039 821.322 344.373C829.337 340.932 836.16 336.768 844.095 333.4C878.586 318.765 902.457 304.62 962.693 307.114C1019.76 309.473 1096.06 329.811 1153.71 366.886C1158.79 370.206 1163.53 373.415 1167.95 376.683C1225.75 418.793 1231.63 446.594 1278.62 467.172C1284.71 469.823 1290.93 472.177 1297.26 474.222C1321.6 482.222 1345.74 485.567 1379.04 488.65C1430.87 493.584 1472.78 491.127 1504.68 490.947C1519.06 490.838 1533.49 491.481 1547.91 492.871C1597.82 497.716 1667.62 512.714 1756.29 552.371" stroke="#6E31E2" stroke-width="1.03329" stroke-miterlimit="10"/>
<path d="M90.3061 -57.7624C172.605 -31.5741 264.701 5.37906 343.621 64.2849C400.187 106.5 436.972 150.304 472.248 183.872C482.566 193.685 492.239 203.913 502.497 213.624C562.361 270.13 601.684 307.868 625.643 331.69C650.352 356.32 661.251 367.166 701.152 370.01C724.316 371.56 747.361 370.245 769.641 366.103C796.825 361.053 807.041 356.123 823.563 347.685C831.097 343.821 837.578 339.38 845.463 335.88C878.788 321.127 905.183 310.006 964.328 315.246C1021.34 320.294 1095.98 343.208 1152.5 379.794C1157.53 383.097 1162.23 386.295 1166.63 389.507C1226.06 432.499 1232.61 458.871 1277.35 478.607C1283.39 481.245 1289.56 483.603 1295.83 485.672C1320.48 493.923 1344.65 497.374 1376.96 500.3C1426.67 504.933 1467.85 502.517 1501.64 502.364C1515.91 502.254 1530.24 502.834 1544.56 504.102C1594.13 508.539 1663.93 522.448 1752.4 559.463" stroke="#6E31E2" stroke-width="1.03329" stroke-miterlimit="10"/>
<path d="M91.9048 -65.1451C170.923 -41.2235 265.792 -6.06681 349.096 55.2374C408.176 98.6752 446.089 144.138 480.387 177.994C490.81 188.288 500.47 198.958 510.624 209.097C569.196 267.589 607.085 308.718 631.31 335.451C655.723 362.41 667.852 375.411 706.701 378.305C729.711 379.825 752.553 377.976 774.333 372.829C801.038 366.549 810.668 360.138 825.841 350.943C832.892 346.657 838.976 341.937 846.917 338.322C879.107 323.476 908.03 315.482 966.08 323.366C1023.02 331.133 1096 356.588 1151.36 392.659C1156.32 395.94 1160.99 399.126 1165.4 402.228C1226.44 446.112 1233.69 471.061 1276.13 489.914C1282.13 492.57 1288.26 494.937 1294.49 497.004C1319.5 505.388 1343.5 509.034 1374.94 511.886C1422.55 516.223 1462.98 513.843 1498.68 513.723C1511.58 513.67 1525.73 514.075 1541.27 515.385C1590.46 519.469 1660.29 532.228 1748.52 566.61" stroke="#6E31E2" stroke-width="1.03329" stroke-miterlimit="10"/>
<path d="M93.4351 -72.3192C169.108 -50.7518 266.737 -17.4121 354.464 46.2868C415.905 90.8967 455.073 138.092 488.414 172.229C498.925 182.997 508.594 194.099 518.635 204.696C575.982 265.197 612.476 309.714 636.853 339.303C660.941 368.682 674.312 383.741 712.127 386.692C735.008 388.185 757.666 385.822 778.933 379.723C805.197 372.208 814.111 364.258 828.026 354.368C834.595 349.66 840.321 344.657 848.16 340.893C879.204 325.985 910.667 321.021 967.586 331.604C1024.5 342.187 1095.79 370.107 1149.96 405.656C1154.87 408.92 1159.51 412.095 1163.89 415.186C1226.55 459.967 1234.49 483.493 1274.71 501.499C1280.64 504.145 1286.7 506.507 1292.87 508.573C1318.24 517.225 1342.15 520.953 1372.58 523.576C1418.1 527.639 1457.78 525.274 1495.38 525.201C1508.22 525.162 1522.26 525.548 1537.65 526.728C1586.48 530.458 1656.31 542.083 1744.35 573.807" stroke="#6E31E2" stroke-width="1.03329" stroke-miterlimit="10"/>
<path d="M94.9521 -79.3983C167.42 -60.1554 267.688 -28.6064 359.843 37.4722C423.796 83.2542 464.024 132.202 496.427 166.558C507.039 177.822 516.721 189.341 526.683 200.407C582.768 262.92 617.897 310.786 642.38 343.315C666.266 374.972 680.837 392.275 717.486 395.223C741.822 397.178 766.002 392.627 783.45 386.755C809.28 378.041 817.64 368.571 830.144 357.937C836.198 352.795 841.582 347.515 849.375 343.604C879.281 328.668 913.209 326.792 969.054 340.011C1025.84 353.406 1095.55 383.779 1148.54 418.808C1153.38 422.05 1157.98 425.214 1162.35 428.299C1226.61 473.986 1235.22 496.083 1273.14 513.2C1279.02 515.841 1285.03 518.207 1291.15 520.289C1316.79 529.196 1340.66 533.014 1370.26 535.508C1413.67 539.276 1452.55 536.931 1492.07 536.89C1504.84 536.879 1518.78 537.217 1534 538.29C1582.48 541.657 1652.33 552.149 1740.13 581.27" stroke="#6E31E2" stroke-width="1.03329" stroke-miterlimit="10"/>
<path d="M96.4242 -86.3935C165.631 -69.4769 268.484 -39.5549 365.172 28.7564C431.376 75.8725 472.926 126.41 504.41 161.042C515.084 172.805 524.835 184.743 534.616 196.245C589.535 260.702 623.278 312.042 647.906 347.393C671.586 381.392 687.2 400.788 722.946 403.852C746.396 405.813 770.67 400.632 788.05 393.879C813.446 383.966 821.06 372.931 832.328 361.594C837.917 356.034 842.916 350.496 850.681 346.444C879.473 331.406 915.882 332.739 970.682 348.454C1027.4 364.734 1095.47 397.487 1147.26 432.01C1152.06 435.227 1156.63 438.378 1160.95 441.462C1226.87 488.022 1236.15 508.72 1271.8 524.959C1277.62 527.6 1283.58 529.969 1289.63 532.057C1315.59 541.2 1339.43 545.123 1368.09 547.476C1409.38 550.958 1447.58 548.585 1488.99 548.643C1501.71 548.629 1515.52 548.958 1530.61 549.922C1578.72 552.92 1648.59 562.277 1736.2 588.726" stroke="#6E31E2" stroke-width="1.03329" stroke-miterlimit="10"/>
<path d="M97.8614 -93.2845C163.781 -78.6699 269.394 -50.5649 370.466 20.1449C439.121 68.4461 481.794 120.772 512.373 155.586C523.118 167.818 532.878 180.188 542.563 192.154C596.289 258.58 628.751 313.362 653.375 351.584C676.879 387.953 693.583 409.523 728.216 412.6C750.792 414.588 775.181 408.768 792.469 401.094C817.466 389.992 824.344 377.361 834.321 365.319C839.348 359.295 844.085 353.521 851.782 349.331C879.577 334.296 918.945 337.328 972.182 357.053C1028.15 377.791 1095.26 411.352 1145.89 445.359C1150.63 448.558 1155.15 451.695 1159.46 454.772C1227.07 502.121 1236.95 521.513 1270.33 536.875C1276.11 539.506 1282.01 541.875 1288.01 543.973C1314.29 553.337 1338.14 557.41 1365.78 559.625C1404.92 562.715 1442.46 560.31 1485.74 560.484C1498.4 560.484 1512.11 560.779 1527.03 561.622C1574.79 564.257 1644.67 572.481 1732.06 596.281" stroke="#6E31E2" stroke-width="1.03329" stroke-miterlimit="10"/>
<path d="M99.2053 -100.123C161.85 -87.7904 270.216 -61.5377 375.667 11.5854C446.773 61.0718 490.473 115.139 520.206 150.236C531.064 162.984 540.846 175.741 550.365 188.214C602.918 256.665 634.009 314.76 658.744 355.908C682.148 394.637 700.007 418.304 733.617 421.458C755.303 423.467 779.803 417.023 797.016 408.432C821.603 396.173 827.695 381.93 836.476 369.231C840.976 362.752 845.413 356.748 853.069 352.396C879.662 337.296 920.857 344.957 973.635 365.736C1029.97 387.867 1094.98 425.295 1144.43 458.781C1149.03 461.945 1153.63 465.109 1157.88 468.155C1227.1 516.41 1237.68 534.4 1268.79 548.868C1274.51 551.5 1280.36 553.872 1286.3 555.976C1312.9 565.576 1336.63 569.726 1363.41 571.792C1400.51 574.689 1437.22 572.373 1482.41 572.499C1495.03 572.517 1508.63 572.859 1523.46 573.523C1570.81 575.879 1640.75 582.9 1727.86 604.03" stroke="#6E31E2" stroke-width="1.03329" stroke-miterlimit="10"/>
<path d="M100.678 -106.838C160.05 -96.8514 271.132 -72.397 381.002 3.13563C454.626 53.8295 499.278 109.695 528.131 144.949C538.978 158.188 548.908 171.357 558.29 184.247C609.84 254.548 639.427 316.243 664.101 360.211C687.292 401.363 706.17 427.081 738.874 430.301C759.669 432.331 784.314 425.275 801.43 415.777C825.654 402.276 830.896 386.498 838.492 373.113C842.418 366.148 846.584 359.939 854.177 355.435C879.688 340.309 923.262 351.261 975.028 374.432C1031.18 399.489 1094.68 439.261 1142.92 472.236C1147.52 475.4 1152.01 478.525 1156.29 481.452C1227.13 530.618 1238.35 547.234 1267.21 560.83C1272.93 563.45 1278.77 565.811 1284.71 567.902C1309.35 576.91 1335.15 582.321 1361.08 583.92C1396.08 586.522 1432.04 584.241 1479.14 584.4C1491.69 584.446 1505.19 584.705 1519.8 585.281C1588.02 588.265 1656.28 597.092 1723.64 611.643" stroke="#6E31E2" stroke-width="1.03329" stroke-miterlimit="10"/>
<path d="M102.052 -113.535C158.158 -105.86 271.984 -83.228 386.233 -5.28204C462.24 46.5746 507.991 104.188 536.077 139.718C660.706 297.514 672.419 431.855 744.226 439.258C764.13 441.309 788.92 433.64 805.926 423.215C842.24 400.974 833.427 372.158 855.385 358.572C909.221 325.25 1066.43 433.889 1154.78 494.938C1240.92 554.468 1241.47 564.702 1282.95 579.983C1355.33 606.694 1401.89 593.386 1516.17 597.196C1584.08 599.548 1652.1 606.992 1719.52 619.449" stroke="#6E31E2" stroke-width="1.03329" stroke-miterlimit="10"/>
<path d="M103.452 -117.796C161.266 -110.567 271.315 -87.8889 380.527 -13.3318C455.889 38.1974 499.039 95.369 529.355 132.986C650.498 283.131 663.045 406.751 734.468 419.558C762.371 424.568 791.92 425.942 813.586 420.284C856.161 409.148 849.772 384.579 876.102 373.14C933.752 348.072 1081.49 446.037 1165.94 503.162C1248.17 558.898 1249.43 567.434 1294.28 580.522C1368.8 602.272 1412.66 591.36 1520.49 594.406C1587.76 596.316 1655.17 603.928 1721.84 617.141" stroke="#6E31E2" stroke-width="1.03329" stroke-miterlimit="10"/>
<path d="M104.912 -122.236C201.521 -110.768 294.859 -75.9548 374.875 -21.5454C449.597 29.6414 490.035 86.3674 522.687 126.089C640.057 268.771 653.758 383.557 724.78 399.7C760.821 407.879 793.96 417.846 821.304 417.174C868.199 416.076 865.452 396.848 896.878 387.53C956.906 369.764 1096.6 458.021 1177.17 511.228C1255.35 563.12 1257.28 570.112 1305.68 580.902C1382.05 597.944 1423.53 589.022 1524.87 591.437C1591.47 592.912 1658.27 600.686 1724.15 614.632" stroke="#6E31E2" stroke-width="1.03329" stroke-miterlimit="10"/>
<path d="M107.508 -130.133C201.551 -119.752 292.559 -86.196 370.377 -33.2103C444.438 17.6435 482.179 73.9293 517.156 115.736C630.384 251.047 649.493 346.742 716.213 376.379C757.952 394.917 796.718 405.676 830.171 410.628C880.711 418.124 881.781 405.483 918.804 398.483C980.093 386.894 1112.94 466.41 1189.52 515.831C1263.82 563.776 1266.15 569.445 1318.2 577.835C1396.3 590.425 1435.51 583.251 1530.4 585.032C1596.35 586.052 1662.55 593.988 1727.65 608.682" stroke="#6E31E2" stroke-width="1.03329" stroke-miterlimit="10"/>
<path d="M111.459 -142.158C202.926 -132.855 291.597 -100.543 367.202 -48.9635C440.613 1.57778 475.643 57.4179 512.965 101.3C621.895 229.37 643.061 317.206 709.003 348.982C757.996 372.578 799.821 397.781 840.361 399.993C896.146 403.039 898.377 402.716 942.053 405.347C1001 389.043 1130.58 470.756 1203.23 516.357C1273.57 560.442 1276.31 564.809 1332.09 570.676C1411.78 579.051 1448.83 573.332 1537.25 574.539C1602.55 575.11 1668.16 583.216 1732.46 598.659" stroke="#6E31E2" stroke-width="1.03329" stroke-miterlimit="10"/>
<path d="M115.503 -154.465C204.395 -146.255 290.748 -115.227 364.194 -65.1077C436.965 -14.9088 469.25 40.5247 508.941 86.4724C613.388 207.407 636.356 288.043 701.84 321.154C758.298 349.68 803.04 380.2 850.723 388.953C912.205 400.244 916.378 405.115 965.472 411.806C1025.63 399.829 1148.3 474.813 1216.98 516.453C1283.36 556.677 1286.48 559.898 1346.02 563.086C1427.33 567.489 1462.21 562.953 1544.17 563.621C1608.82 563.743 1673.84 572.02 1737.34 588.211" stroke="#6E31E2" stroke-width="1.03329" stroke-miterlimit="10"/>
<path d="M119.627 -167.011C205.912 -159.861 289.915 -130.101 361.172 -81.4383C433.299 -31.5669 462.806 23.449 504.904 71.4588C604.778 185.36 629.431 259.153 694.886 293.212C758.702 326.418 810.268 353.403 861.067 377.741C923.792 407.799 934.357 407.358 988.874 418.093C1050.36 410.382 1166.09 478.647 1230.94 516.436C1293.37 552.799 1296.83 554.962 1360.15 555.383C1442.89 555.926 1475.78 552.39 1551.21 552.547C1615.22 552.229 1679.67 560.678 1742.35 577.607" stroke="#6E31E2" stroke-width="1.03329" stroke-miterlimit="10"/>
<path d="M123.804 -179.721C192.279 -174.998 279.394 -152.362 358.26 -97.9308C429.842 -48.5191 456.444 6.23545 500.959 56.2778C596.103 163.226 622.417 230.417 687.904 265.063C759.307 302.827 815.322 335.219 871.519 366.367C938.817 403.69 951.286 418.403 1012.39 424.219C1075.69 430.248 1183.96 482.257 1244.88 516.212C1303.34 548.729 1307.17 549.89 1374.26 547.488C1458.61 544.384 1489.35 541.596 1558.39 541.337C1601.31 541.177 1665.21 543.521 1747.5 566.867" stroke="#6E31E2" stroke-width="1.03329" stroke-miterlimit="10"/>
<path d="M128.054 -192.655C198.295 -188.325 281.574 -165.694 355.399 -114.638C426.341 -65.5683 450.101 -11.1531 497.082 40.8881C587.381 140.944 615.138 201.626 681.008 236.712C760.079 278.845 820.626 316.788 882.024 354.78C954.094 399.383 968.913 420.168 1035.95 430.13C1099.86 439.578 1201.84 485.772 1258.9 515.784C1313.43 544.468 1317.66 544.868 1388.46 539.375C1474.38 532.729 1502.98 530.522 1565.56 529.89C1607.95 529.457 1670.98 531.516 1752.64 555.876" stroke="#6E31E2" stroke-width="1.03329" stroke-miterlimit="10"/>
<path d="M132.354 -205.737C204.436 -201.859 283.805 -179.176 352.592 -131.508C422.894 -82.7813 443.775 -28.7019 493.259 25.3345C578.633 118.572 607.865 172.82 674.149 208.191C761.026 254.557 826.085 298.176 892.582 343.028C969.567 394.942 986.724 421.432 1059.56 435.877C1124.19 448.697 1219.8 489.049 1272.96 515.188C1323.44 540.033 1328.2 539.697 1402.69 531.093C1490.27 520.997 1516.66 519.234 1572.78 518.279C1614.66 517.564 1676.81 519.267 1757.82 544.735" stroke="#6E31E2" stroke-width="1.03329" stroke-miterlimit="10"/>
<path d="M136.717 -219.013C210.487 -215.522 286.11 -192.831 349.844 -148.558C419.501 -100.158 437.453 -46.381 489.495 9.60215C569.851 96.0722 597.014 150.78 667.365 179.497C767.102 220.216 831.658 279.387 903.199 331.097C985.171 390.329 1003.39 438.316 1083.24 441.446C1149.96 444.007 1237.72 492.214 1287.09 514.417C1333.58 535.391 1338.83 534.424 1416.99 522.652C1506.27 509.183 1530.38 507.697 1580.06 506.49C1621.42 505.471 1682.71 506.875 1763.07 533.401" stroke="#6E31E2" stroke-width="1.03329" stroke-miterlimit="10"/>
<path d="M141.222 -232.721C216.767 -229.653 288.531 -206.894 347.284 -166.123C416.279 -118.057 431.248 -64.5332 485.902 -6.65169C561.25 73.1371 590.247 120.375 660.736 150.276C768.027 195.822 837.474 260.084 914.004 318.65C1001.03 385.223 1020.81 436.48 1107.1 446.498C1175.56 454.434 1255.96 494.793 1301.38 513.12C1343.88 530.273 1349.75 528.734 1431.46 513.67C1522.49 496.9 1544.29 495.594 1587.53 494.185C1628.35 492.842 1688.77 493.976 1768.5 521.566" stroke="#6E31E2" stroke-width="1.03329" stroke-miterlimit="10"/>
<path d="M146.011 -247.294C223.315 -244.655 291.239 -221.887 344.938 -184.394C413.288 -136.655 425.204 -83.3429 482.539 -23.606C552.678 49.4848 583.694 89.2631 654.354 120.36C769.185 170.893 843.561 240.077 925.027 305.483C1017.18 379.469 1039.15 433.263 1131.19 450.83C1201.17 464.187 1274.33 496.717 1315.92 511.129C1354.38 524.463 1360.92 522.384 1446.17 503.992C1538.99 483.962 1558.48 482.741 1595.21 481.158C1635.52 479.447 1695.15 480.39 1774.15 509.01" stroke="#6E31E2" stroke-width="1.03329" stroke-miterlimit="10"/>
<path d="M150.883 -262.119C229.963 -259.904 294.037 -237.097 342.704 -203.008C410.405 -155.582 419.187 -102.408 479.289 -40.9028C544.245 25.5812 577.192 57.8221 648.067 90.0959C770.317 145.758 849.789 219.754 936.159 291.988C1033.54 373.405 1058.2 429.22 1155.37 454.834C1226.69 473.632 1292.81 498.349 1330.55 508.789C1364.96 518.33 1372.23 515.768 1460.97 493.967C1555.68 470.725 1572.66 469.371 1603.01 467.789C1642.78 465.654 1701.47 466.385 1779.91 496.111" stroke="#6E31E2" stroke-width="1.03329" stroke-miterlimit="10"/>
<path d="M156.187 -278.256C237.037 -276.45 297.185 -253.546 340.896 -222.919C407.852 -175.687 413.472 -122.677 476.466 -59.4961C536.189 0.414815 571.095 25.0941 642.224 58.5409C771.775 119.459 856.481 198.13 947.648 277.174C1050.13 365.978 1080.62 417.357 1179.92 457.519C1250.69 486.124 1311.63 498.657 1345.56 505.135C1375.95 510.93 1383.97 507.855 1476.15 482.643C1572.76 456.181 1587.22 454.759 1611.16 453.132C1650.37 450.451 1708.23 451.124 1786.03 481.909" stroke="#6E31E2" stroke-width="1.03329" stroke-miterlimit="10"/>
<path d="M161.437 -294.229C244.045 -292.852 300.366 -269.918 339.056 -242.674C405.351 -195.776 407.553 -142.668 473.593 -77.9403C528.053 -24.5635 564.91 -7.4812 636.315 27.1295C773.107 93.4317 863.138 176.676 959.247 262.544C1066.97 358.816 1100.47 414.616 1204.58 460.389C1276.9 492.148 1330.56 499.265 1360.63 501.67C1387.02 503.738 1395.84 500.198 1491.4 471.492C1589.99 441.882 1601.86 440.219 1619.42 438.643C1658.02 435.184 1715.08 436.058 1792.25 467.906" stroke="#6E31E2" stroke-width="1.03329" stroke-miterlimit="10"/>
<path d="M166.691 -310.217C251.019 -309.265 303.652 -286.272 337.199 -262.436C402.781 -215.887 401.436 -162.459 470.72 -96.3845C519.897 -49.4822 558.708 -40.0621 630.423 -4.27651C774.32 67.531 869.791 155.287 970.755 247.902C1083.72 351.626 1120.34 411.951 1229.15 463.245C1303.33 498.209 1349.45 499.942 1375.66 498.188C1398.03 496.69 1407.61 492.528 1506.6 460.325C1607.18 427.557 1616.39 425.581 1627.59 424.142C1665.44 419.262 1721.85 420.948 1798.39 453.86" stroke="#6E31E2" stroke-width="1.03329" stroke-miterlimit="10"/>
</svg>
