<svg width="28" height="25" viewBox="0 0 28 25" fill="none" xmlns="http://www.w3.org/2000/svg">
<g filter="url(#filter0_d_386_12910)">
<path d="M25.643 4.93702C24.808 5.30702 23.911 5.55702 22.968 5.67002C23.941 5.08781 24.669 4.17148 25.016 3.09202C24.1019 3.63501 23.1014 4.01721 22.058 4.22202C21.3564 3.47288 20.4271 2.97634 19.4143 2.80949C18.4016 2.64264 17.3621 2.81481 16.4573 3.29927C15.5524 3.78373 14.8328 4.55338 14.4102 5.48872C13.9875 6.42406 13.8855 7.47277 14.12 8.47202C12.2677 8.37901 10.4556 7.89756 8.80144 7.05892C7.14723 6.22028 5.68785 5.04318 4.51801 3.60402C4.11801 4.29402 3.88801 5.09402 3.88801 5.94602C3.88757 6.71301 4.07644 7.46826 4.43789 8.14475C4.79934 8.82124 5.32217 9.39805 5.96001 9.82402C5.22029 9.80048 4.49688 9.6006 3.85001 9.24102V9.30101C3.84994 10.3768 4.22204 11.4194 4.90319 12.252C5.58435 13.0846 6.53258 13.6559 7.58701 13.869C6.9008 14.0547 6.18135 14.0821 5.48301 13.949C5.78051 14.8746 6.36001 15.684 7.14038 16.2639C7.92075 16.8438 8.86293 17.1652 9.83501 17.183C8.18485 18.4784 6.1469 19.1811 4.04901 19.178C3.67739 19.1781 3.30609 19.1564 2.93701 19.113C5.06649 20.4822 7.54535 21.2088 10.077 21.206C18.647 21.206 23.332 14.108 23.332 7.95202C23.332 7.75202 23.327 7.55002 23.318 7.35002C24.2293 6.69099 25.0159 5.87491 25.641 4.94002L25.643 4.93702V4.93702Z" fill="#F1F1F1"/>
</g>
<defs>
<filter id="filter0_d_386_12910" x="-0.0208156" y="-1.01041" width="28.0416" height="28.0416" filterUnits="userSpaceOnUse" color-interpolation-filters="sRGB">
<feFlood flood-opacity="0" result="BackgroundImageFix"/>
<feColorMatrix in="SourceAlpha" type="matrix" values="0 0 0 0 0 0 0 0 0 0 0 0 0 0 0 0 0 0 127 0" result="hardAlpha"/>
<feOffset dy="1.01041"/>
<feGaussianBlur stdDeviation="1.01041"/>
<feComposite in2="hardAlpha" operator="out"/>
<feColorMatrix type="matrix" values="0 0 0 0 0 0 0 0 0 0 0 0 0 0 0 0 0 0 0.15 0"/>
<feBlend mode="normal" in2="BackgroundImageFix" result="effect1_dropShadow_386_12910"/>
<feBlend mode="normal" in="SourceGraphic" in2="effect1_dropShadow_386_12910" result="shape"/>
</filter>
</defs>
</svg>
